HIERARCHY
ROOT Hips
{
	OFFSET 0.000000 0.000000 0.000000
	CHANNELS 6 Xposition Yposition Zposition Zrotation Yrotation Xrotation 
	JOINT LeftUpLeg_virtual
	{
		OFFSET 0.000000 0.000000 0.000000
		CHANNELS 3 Zrotation Yrotation Xrotation
		JOINT LeftUpLeg
		{
			OFFSET 10.205400 -3.823500 0.155100
			CHANNELS 3 Zrotation Yrotation Xrotation
			JOINT LeftLeg
			{
				OFFSET 0.708757 -12.982077 0.567790
				CHANNELS 3 Zrotation Yrotation Xrotation
				JOINT LeftFoot
				{
					OFFSET -0.708756 -10.717838 -2.184338
					CHANNELS 3 Zrotation Yrotation Xrotation
					JOINT LeftToeBase
					{
						OFFSET 0.108149 -7.191104 7.560241
						CHANNELS 3 Zrotation Yrotation Xrotation
						End Site
						{
							OFFSET 0.000000 0.000000 0.000000
						}
					}
				}
			}
		}
	}
	JOINT RightUpLeg_virtual
	{
		OFFSET 0.000000 0.000000 0.000000
		CHANNELS 3 Zrotation Yrotation Xrotation
		JOINT RightUpLeg
		{
			OFFSET -10.205400 -3.823500 0.005500
			CHANNELS 3 Zrotation Yrotation Xrotation
			JOINT RightLeg
			{
				OFFSET -0.708756 -12.982134 0.610632
				CHANNELS 3 Zrotation Yrotation Xrotation
				JOINT RightFoot
				{
					OFFSET 0.708754 -10.717769 -1.945823
					CHANNELS 3 Zrotation Yrotation Xrotation
					JOINT RightToeBase
					{
						OFFSET -0.108140 -7.191069 7.372968
						CHANNELS 3 Zrotation Yrotation Xrotation
						End Site
						{
							OFFSET 0.000000 0.000000 0.000000
						}
					}
				}
			}
		}
	}
	JOINT Spine_virtual
	{
		OFFSET 0.000000 0.000000 0.000000
		CHANNELS 3 Zrotation Yrotation Xrotation
		JOINT Spine
		{
			OFFSET 0.000000 6.876099 0.125700
			CHANNELS 3 Zrotation Yrotation Xrotation
			JOINT Spine1
			{
				OFFSET 0.000000 8.022060 0.146608
				CHANNELS 3 Zrotation Yrotation Xrotation
				JOINT Spine2
				{
					OFFSET 0.000000 9.168068 0.167552
					CHANNELS 3 Zrotation Yrotation Xrotation
					JOINT Neck_virtual
					{
						OFFSET 0.000000 0.000000 0.000000
						CHANNELS 3 Zrotation Yrotation Xrotation
						JOINT Neck
						{
							OFFSET 0.000000 10.314075 0.188496
							CHANNELS 3 Zrotation Yrotation Xrotation
							JOINT Head
							{
								OFFSET 0.000000 7.643700 -2.377400
								CHANNELS 3 Zrotation Yrotation Xrotation
								End Site
								{
									OFFSET 0.000000 0.000000 0.000000
								}
							}
						}
					}
					JOINT LeftShoulder_virtual
					{
						OFFSET 0.000000 0.000000 0.000000
						CHANNELS 3 Zrotation Yrotation Xrotation
						JOINT LeftShoulder
						{
							OFFSET 4.392200 8.824978 0.174984
							CHANNELS 3 Zrotation Yrotation Xrotation
							JOINT LeftArm
							{
								OFFSET 8.771219 -2.981674 -0.026999
								CHANNELS 3 Zrotation Yrotation Xrotation
								JOINT LeftForeArm
								{
									OFFSET 8.512804 0.000000 -0.000000
									CHANNELS 3 Zrotation Yrotation Xrotation
									JOINT LeftHand
									{
										OFFSET 18.484802 0.000000 -0.000000
										CHANNELS 3 Zrotation Yrotation Xrotation
										End Site
										{
											OFFSET 0.000000 0.000000 0.000000
										}
									}
								}
							}
						}
					}
					JOINT RightShoulder_virtual
					{
						OFFSET 0.000000 0.000000 0.000000
						CHANNELS 3 Zrotation Yrotation Xrotation
						JOINT RightShoulder
						{
							OFFSET -4.392200 8.824993 0.141379
							CHANNELS 3 Zrotation Yrotation Xrotation
							JOINT RightArm
							{
								OFFSET -8.771282 -2.981682 -0.094208
								CHANNELS 3 Zrotation Yrotation Xrotation
								JOINT RightForeArm
								{
									OFFSET -8.494598 0.000000 0.000000
									CHANNELS 3 Zrotation Yrotation Xrotation
									JOINT RightHand
									{
										OFFSET -18.483803 0.000000 0.000001
										CHANNELS 3 Zrotation Yrotation Xrotation
										End Site
										{
											OFFSET 0.000000 0.000000 0.000000
										}
									}
								}
							}
						}
					}
				}
			}
		}
	}
}
MOTION
Frames: 7
Frame Time: 0.033333
1.017570 34.642170 5.285989 179.851298 5.478265 -179.801110 -1.952607 -2.217836 9.602041 -9.556444 2.091264 -28.914349 14.493924 5.283945 24.553072 -6.882633 0.564786 0.128613 0.000000 0.000000 0.000000 2.528105 0.414958 7.860199 1.890044 11.191927 -28.495568 -5.955235 1.748036 25.871727 6.345395 0.268212 1.989003 0.000000 0.000000 0.000000 0.738720 0.754348 -6.002742 0.844777 -0.682364 -6.010788 -0.006007 -2.341178 10.773803 0.011750 0.012489 0.023840 -0.416494 -0.259882 13.598257 0.085824 -5.233632 16.201603 0.000000 0.000000 0.000000 0.858010 0.416303 10.351339 -18.314654 -10.510780 1.422990 -53.345874 17.500113 1.627363 -2.457815 -27.420042 3.094950 0.000000 0.000000 0.000000 -2.786191 1.703950 9.469147 18.000839 2.403040 -2.287092 54.035378 -32.505847 11.474305 -160.723968 70.000430 -163.978881 0.000000 0.000000 0.000000 
0.977289 34.646187 5.402821 179.718533 5.523727 -179.791083 -1.855668 -2.356527 9.586564 -9.863714 1.947821 -28.821004 14.356858 6.009130 24.762957 -6.904555 0.481475 -0.198650 0.000000 0.000000 0.000000 2.384594 0.429064 7.840279 2.019730 11.132284 -28.451083 -6.231868 1.661333 25.902758 6.144378 0.046125 2.100776 0.000000 0.000000 0.000000 0.695112 0.674254 -5.954514 0.775300 -0.817184 -5.898764 -0.042511 -2.435018 10.738645 0.017949 0.045483 0.093271 -0.411655 -0.228880 13.553682 0.166139 -5.192403 16.118951 0.000000 0.000000 0.000000 0.833088 0.447456 10.314235 -18.465177 -10.484578 1.487100 -53.517695 17.625119 1.697178 -2.399338 -27.143814 3.028416 0.000000 0.000000 0.000000 -2.734155 1.826256 9.454062 18.126835 2.592611 -2.208725 54.120404 -32.262245 12.155599 -160.569401 70.170140 -163.849203 0.000000 0.000000 0.000000 
0.913969 34.637814 5.564302 179.892348 6.062096 -179.813555 -1.722118 -2.052067 9.438275 -9.901531 1.882678 -28.741566 14.350941 6.079278 24.695654 -6.639886 0.500404 -0.389565 0.000000 0.000000 0.000000 2.671692 0.482259 7.731529 1.785288 11.672582 -28.562203 -6.424746 1.900950 25.640540 6.373277 0.041617 2.341309 0.000000 0.000000 0.000000 0.909995 0.733929 -5.779444 0.773123 -0.810003 -5.742882 -0.022557 -2.364552 10.711662 -0.003551 0.011592 0.121301 -0.411886 -0.206860 13.459730 0.261099 -5.078357 15.864762 0.000000 0.000000 0.000000 0.833690 0.500697 10.268715 -18.608896 -10.534917 1.568531 -53.809859 17.745812 1.819095 -2.404595 -26.792354 3.054057 0.000000 0.000000 0.000000 -2.754766 1.831836 9.383648 18.350034 2.745903 -2.134945 54.433616 -31.823296 12.785958 -159.971377 70.938372 -163.297706 0.000000 0.000000 0.000000 
0.839622 34.626068 5.737372 179.844222 6.494753 -179.826409 -1.725960 -2.137274 9.323674 -10.067871 1.945497 -28.618450 14.223520 6.243642 24.323204 -6.256233 0.637037 -0.505797 0.000000 0.000000 0.000000 2.771334 0.280119 7.599695 1.427341 12.250136 -28.757159 -6.563052 2.154732 25.268018 6.670095 0.024314 2.671601 0.000000 0.000000 0.000000 0.976557 0.761747 -5.540616 0.642256 -1.050563 -5.656768 -0.062027 -2.513457 10.779248 -0.018971 0.052201 0.057930 -0.392638 -0.222534 13.392896 0.333191 -4.914894 15.548772 0.000000 0.000000 0.000000 0.894359 0.572435 10.186735 -18.775463 -10.528744 1.681720 -54.037656 17.765006 2.005050 -2.339414 -26.536770 2.952061 0.000000 0.000000 0.000000 -2.737926 1.845801 9.367400 18.695213 2.833317 -1.905319 54.970134 -31.170163 13.222745 -158.777624 71.821802 -162.175943 0.000000 0.000000 0.000000 
0.755851 34.611145 5.890337 179.980498 7.319412 -179.960390 -1.552349 -1.898181 9.296208 -10.240171 2.135486 -28.361572 14.050361 6.293858 24.087340 -5.817544 0.829970 -0.816804 0.000000 0.000000 0.000000 3.098113 0.274227 7.471681 0.946452 12.948112 -28.959698 -6.739592 2.330720 24.959717 7.019623 -0.007810 2.985719 0.000000 0.000000 0.000000 1.175671 0.794514 -5.068729 0.585943 -1.023442 -5.488923 0.014771 -2.347595 10.609756 0.026417 0.047775 0.007906 -0.387285 -0.230213 13.399510 0.422570 -4.674111 15.138551 0.000000 0.000000 0.000000 0.893572 0.429807 10.247037 -18.919561 -10.653058 1.811038 -54.100228 17.673330 2.131829 -2.298053 -26.524239 2.983510 0.000000 0.000000 0.000000 -2.755169 1.728209 9.263990 19.009644 2.565821 -1.727354 55.232195 -30.614059 13.645237 -157.918591 72.595786 -161.405034 0.000000 0.000000 0.000000 
0.664217 34.598000 6.005415 179.919122 7.974312 -179.913057 -1.517822 -1.983492 9.236963 -10.456963 2.310305 -28.291120 13.877134 6.430963 23.783716 -5.384845 1.134313 -0.968792 0.000000 0.000000 0.000000 3.207258 0.087401 7.324426 0.492034 13.427808 -29.307184 -6.741817 2.690206 24.749640 7.394082 -0.041484 3.400836 0.000000 0.000000 0.000000 1.201653 0.797835 -4.633943 0.440673 -1.201931 -5.580176 0.010531 -2.395866 10.591181 0.046566 0.000979 -0.027083 -0.407637 -0.186631 13.286808 0.505439 -4.396562 14.653957 0.000000 0.000000 0.000000 0.912767 0.493514 10.112103 -19.128653 -10.620502 2.011158 -54.022271 17.550265 2.155082 -2.238596 -26.881722 2.999477 0.000000 0.000000 0.000000 -2.781210 1.773053 9.177480 19.208994 2.396411 -1.501066 55.222780 -30.243214 13.877266 -157.370413 73.348227 -160.875530 0.000000 0.000000 0.000000 
0.561067 34.583588 6.104015 179.960786 8.821667 -179.982820 -1.350700 -1.859565 9.265938 -10.686922 2.388022 -28.186587 13.677126 6.589761 23.608733 -4.978268 1.524291 -1.079867 0.000000 0.000000 0.000000 3.459564 -0.020788 7.261557 0.006198 13.748863 -29.691642 -6.699600 2.929168 24.629894 7.917774 0.047255 3.829096 0.000000 0.000000 0.000000 1.294412 0.914378 -4.053750 0.357219 -1.407794 -5.529063 -0.015575 -2.472611 10.343102 -0.024220 0.072444 -0.033659 -0.404221 -0.201426 13.171784 0.626417 -4.084769 14.110602 0.000000 0.000000 0.000000 0.996970 0.570143 9.974584 -19.299152 -10.580889 2.270709 -53.683156 17.418535 2.251585 -2.171511 -27.558681 3.031063 0.000000 0.000000 0.000000 -2.730636 1.740303 9.173478 19.257756 2.294231 -1.232020 54.869106 -30.015007 14.227779 -156.057146 74.270330 -159.527592 0.000000 0.000000 0.000000 
